<mxfile host="app.diagrams.net" modified="2022-09-29T13:03:27.949Z" agent="5.0 (Windows NT 10.0; Win64; x64) AppleWebKit/537.36 (KHTML, like Gecko) Chrome/105.0.0.0 Safari/537.36 Edg/105.0.1343.53" etag="Yalk8UWA65Vt-UCwWCUC" version="20.3.7" type="github">
  <diagram id="bLauYJV0_EH87xtksSwE" name="第 1 页">
    <mxGraphModel dx="1037" dy="634" grid="1" gridSize="10" guides="1" tooltips="1" connect="1" arrows="1" fold="1" page="1" pageScale="1" pageWidth="827" pageHeight="1169" math="0" shadow="0">
      <root>
        <mxCell id="0" />
        <mxCell id="1" parent="0" />
        <mxCell id="Ez4_UhXySZ6rGa4yXCrw-1" value="" style="rounded=0;whiteSpace=wrap;html=1;" vertex="1" parent="1">
          <mxGeometry x="70" y="180" width="610" height="330" as="geometry" />
        </mxCell>
        <mxCell id="Ez4_UhXySZ6rGa4yXCrw-3" value="" style="rounded=0;whiteSpace=wrap;html=1;fillColor=#FFB366;" vertex="1" parent="1">
          <mxGeometry x="140" y="250" width="150" height="100" as="geometry" />
        </mxCell>
        <mxCell id="Ez4_UhXySZ6rGa4yXCrw-5" value="" style="rounded=0;whiteSpace=wrap;html=1;" vertex="1" parent="1">
          <mxGeometry x="140" y="350" width="150" height="100" as="geometry" />
        </mxCell>
        <mxCell id="Ez4_UhXySZ6rGa4yXCrw-6" value="" style="rounded=0;whiteSpace=wrap;html=1;fillColor=#FFB366;" vertex="1" parent="1">
          <mxGeometry x="470" y="250" width="150" height="50" as="geometry" />
        </mxCell>
        <mxCell id="Ez4_UhXySZ6rGa4yXCrw-7" value="" style="rounded=0;whiteSpace=wrap;html=1;" vertex="1" parent="1">
          <mxGeometry x="470" y="300" width="150" height="150" as="geometry" />
        </mxCell>
        <mxCell id="Ez4_UhXySZ6rGa4yXCrw-8" value="用户空间&lt;br&gt;(user space)" style="text;html=1;strokeColor=none;fillColor=none;align=center;verticalAlign=middle;whiteSpace=wrap;rounded=0;" vertex="1" parent="1">
          <mxGeometry x="330" y="385" width="100" height="30" as="geometry" />
        </mxCell>
        <mxCell id="Ez4_UhXySZ6rGa4yXCrw-9" value="内核空间&lt;br&gt;(kernel space)" style="text;html=1;strokeColor=none;fillColor=none;align=center;verticalAlign=middle;whiteSpace=wrap;rounded=0;" vertex="1" parent="1">
          <mxGeometry x="330" y="280" width="100" height="30" as="geometry" />
        </mxCell>
      </root>
    </mxGraphModel>
  </diagram>
</mxfile>
